PathFileType	4	(X/Y/Z)	Patient4_TMGait_0pt3_03_right_30.trc.trc
DataRate	CameraRate	NumFrames	NumMarkers	Units	OrigDataRate	OrigDataStartFrame	OrigNumFrames
54.901960784314	54.901960784314	7	33	mm	54.901960784314	36	       141
Frame#	Time	Sacral			L.Shoulder			Chest			R.Shoulder			Neck			R.ASIS			L.ASIS			R.Thigh.Superior			R.Thigh.Lateral			R.Thigh.Inferior			R.Patella			L.Thigh.Superior			L.Thigh.Lateral			L.Thigh.Inferior			L.Patella			L.Shank.Superior			L.Shank.Lateral			L.Shank.Inferior			R.Shank.Superior			R.Shank.Lateral			R.Shank.Inferior			R.Heel			R.Midfoot.Superior			R.Midfoot.Lateral			R.Toe			L.Heel			L.Midfoot.Lateral			L.Midfoot.Superior			L.Toe			L.Elbow			L.Wrist			R.Elbow			R.Wrist			
		X1	Y1	Z1	X2	Y2	Z2	X3	Y3	Z3	X4	Y4	Z4	X5	Y5	Z5	X6	Y6	Z6	X7	Y7	Z7	X8	Y8	Z8	X9	Y9	Z9	X10	Y10	Z10	X11	Y11	Z11	X12	Y12	Z12	X13	Y13	Z13	X14	Y14	Z14	X15	Y15	Z15	X16	Y16	Z16	X17	Y17	Z17	X18	Y18	Z18	X19	Y19	Z19	X20	Y20	Z20	X21	Y21	Z21	X22	Y22	Z22	X23	Y23	Z23	X24	Y24	Z24	X25	Y25	Z25	X26	Y26	Z26	X27	Y27	Z27	X28	Y28	Z28	X29	Y29	Z29	X30	Y30	Z30	X31	Y31	Z31	X32	Y32	Z32	X33	Y33	Z33	

36	56.647500000000	738.905022274301	1003.837297087315	522.454291861161	928.097886269209	1438.655183261490	365.329725218927	1013.867521022882	1368.247604506806	534.007411155879	911.593241279913	1434.934727542670	700.130350192098	884.640993462889	1494.177458105222	522.697857136877	963.841965251039	938.923802048917	651.904342890425	962.923478468735	964.087542816822	379.040842036466	1020.303678981628	746.616094063086	615.945188485182	949.552371307562	631.085811392973	676.025597490514	1030.489498618138	585.329253727745	594.586794489561	1039.476329659279	495.884512584478	601.648177110365	977.997006706088	732.305626757472	395.673171536882	872.970658805275	629.492618761679	327.019996830316	945.767705846714	537.263698781092	383.134701286881	933.436658837299	459.721426811878	382.719665362054	876.572640675255	400.842218277900	375.484451810018	748.423917905439	332.424418832894	322.210327493353	754.357826842178	204.226704135244	381.070526376565	1010.035075770408	405.777485235057	609.558779426717	941.333365231071	302.502407036878	675.535914498066	980.107065681687	206.859447291614	611.043927160727	843.810555733489	43.726092525404	588.847472113951	1016.017746710628	97.088000448256	619.489262850157	929.032059385966	37.284146954204	660.680603453480	1136.812609429793	44.707996205495	644.222080512051	579.481368674229	93.793293888679	414.112437339571	651.687680796475	67.289361571217	337.551368011106	747.810082646421	106.745321933309	363.400255943937	856.569213970952	36.142138593685	340.751934134859	1028.013364665438	1119.131050697882	215.397002095318	1285.785567426717	1089.349494431720	227.909149896711	817.917810915357	1097.301422782945	805.010289245252	849.667301393990	838.486463977475	827.093509388041	
37	56.665714285714	739.811407910276	1004.396073725385	528.301611738156	926.310764310322	1439.528951312033	369.009563012056	1014.134932116920	1369.311435203914	536.788139550203	913.439774670994	1435.604535658118	703.952445984756	884.328865892542	1495.029097727807	526.645910825977	966.010705207143	939.855870029275	655.593633126136	962.562539735851	964.979972437569	382.824236795823	1020.218997552703	745.851438054191	619.827483617649	947.945250103669	630.972766078136	679.239759029663	1028.168943500531	584.614447553090	597.498393958251	1036.136930510344	495.219671737917	603.961524354587	981.936684966515	734.319038491104	398.722867825243	879.371959782934	629.929741233616	329.898608887809	954.866674218174	538.488355436714	384.963511159127	943.160103424491	459.786749593765	383.469683766944	884.223758890046	401.446052363041	376.441084230510	753.753555569342	337.162827780748	323.584597228470	756.703731905685	208.252722544213	380.938177821560	1006.234040444533	405.441250089395	611.454107554873	937.148489494926	302.154612116681	676.809598167849	975.451934965790	206.698037519051	611.791836224233	838.618471075946	43.688310203028	588.944864089538	1010.791018288578	97.123255676669	619.683059750339	923.835227430487	37.248802296274	660.742048109494	1131.621151318902	44.600740227161	644.387804271475	578.598329310388	104.357069544885	413.848889582098	649.440511258956	74.257388561379	337.397615775390	747.289633722184	109.374284726306	362.860198583403	852.070212063535	35.600945702104	340.823295049114	1021.358652890984	1116.765417547332	221.205019569808	1278.058997091587	1075.551932188144	231.277107452751	827.649019805934	1096.386931753498	811.972371556444	865.716131456469	838.441576389231	834.738415874704	
38	56.683928571429	740.303842938490	1004.827801938888	534.056836521101	924.389007794400	1440.072919916200	372.381303911388	1014.268563778776	1370.066508663814	539.239450793632	915.334192462555	1436.168140097590	707.458034377925	884.030607713485	1495.692116675450	530.255561137363	967.749148989058	940.613288094175	659.182055185898	961.719822109064	965.601803525420	386.496365824727	1019.825315282515	745.102234034050	623.470449112270	946.194842158402	630.759646640675	682.265269072563	1025.727892198336	583.912315470894	600.214585950235	1032.747290067157	494.538092071596	606.119116950489	985.907265183420	736.430395339723	401.930010380522	886.250178355416	630.327081487373	332.800448208091	964.449843217044	539.909712993205	387.107410462932	953.482839164808	460.053922825869	384.559939489938	892.571710013502	402.166327120722	377.568425642342	759.979789225347	342.092771501364	324.962009636439	759.753319512889	212.606579701083	380.868668202316	1002.371189292143	405.079414356770	613.236694472535	932.868592168104	301.814147379892	677.977987995284	970.754557690078	206.542682928552	612.498064203291	833.365914038813	43.674183073525	589.016964577551	1005.515629852888	97.167415345134	619.882941183405	918.562868523416	37.225145980098	660.794857560396	1126.347760197268	44.512609041096	644.567147675069	578.610295967170	115.838573159099	413.586668331033	647.787771137395	82.032502569428	337.243096249295	747.234182296586	112.341858945338	362.373391876612	847.609427192045	34.905597970480	340.909764821287	1014.221380629117	1113.926492198900	227.026029854767	1268.935328831348	1059.814717214572	234.519383241635	837.763183012671	1095.476643545623	818.635336776523	882.464926393175	838.609005945445	841.946213952423	
39	56.702142857143	740.414791081026	1005.069795708809	539.721741028130	922.325396578956	1440.243309190981	375.447160496713	1014.239701696869	1370.485883180373	541.376105727547	917.213518703028	1436.588931633944	710.644556950520	883.726116580456	1496.125841418134	533.521484269847	969.092655097438	941.153390056513	662.653536131259	960.410057929797	965.938981690712	390.048656215214	1019.266197524376	744.395146510667	626.762435625178	944.547639216016	630.429213086555	685.039622634934	1023.389047766989	583.225978592256	602.632594300732	1029.567835332355	493.805919785901	608.025551815841	989.828971541197	738.627191933117	405.312996705414	893.505364156940	630.723145975979	335.729542432123	974.342433238674	541.555918384393	389.624666739828	964.242704846987	460.556727288178	386.046889053763	901.476252985654	403.029146846901	378.902001428773	766.982806838467	347.191788031167	326.378772305532	763.449093597556	217.264808896936	380.898195493421	998.653918657754	404.650543328797	614.828024202875	928.677959787838	301.474637864524	679.013110601869	966.099387220944	206.358626548989	613.114527547470	828.039210482532	43.685433935476	589.069711489512	1000.191654851931	97.208382267170	620.067289625099	913.208061144156	37.215804466427	660.838553808570	1120.994022754237	44.418362045385	644.740732396343	579.566102349203	128.151312066142	413.398071110610	646.742575434063	90.570509139382	337.144911779315	747.598651311290	115.641716664961	361.962990229224	843.125344013946	34.038908077779	341.002131521096	1006.683334475234	1110.633671852441	232.834294889139	1258.217026597914	1042.234226395998	237.660521100876	848.119569087888	1094.543510408513	824.922700491861	899.911553104092	839.030252000943	848.658019672163	
40	56.720357142857	740.188184397090	1005.073706329997	545.301134080088	920.114151646003	1440.012939572175	378.214993000890	1014.028278985294	1370.557204971535	543.216163249478	919.023657414893	1436.839705140064	713.514618712586	883.393895911031	1496.299134927105	536.445899885265	970.085567578091	941.442859161946	665.991354874591	958.664940378427	965.990911294469	393.472423025744	1018.669482724947	743.737049287236	629.641316035196	943.195262429512	629.959759813250	687.525153310516	1021.335603200583	582.546535234694	604.689671506685	1026.810997570062	492.988381627775	609.617666950896	993.620030792463	740.896938257094	408.876613994067	901.022997446565	631.158529617113	338.680410542390	984.367225906459	543.447171728759	392.537754288331	975.272301503119	461.319872883491	387.946784994583	910.782287039693	404.056400886059	380.457623419200	774.607985025704	352.437773430156	327.881326788511	767.714259089530	222.194111627407	381.068668591815	995.250614455900	404.116719864881	616.174333274468	924.725910460576	301.123889617178	679.897512733732	961.554504322047	206.115414181394	613.610593182353	822.639673379368	43.718748408552	589.110380686593	994.824762616230	97.238599308212	620.219995533172	907.778854439162	37.220413568022	660.874045841704	1115.572415600142	44.306698398928	644.894373869316	581.475874804548	141.157035500038	413.386171161011	646.293007334484	99.785753952163	337.182292788642	748.329898928308	119.254446537274	361.658453826443	838.562819481361	33.006936016138	341.090167622946	998.825102652850	1106.924126262010	238.604699848307	1245.710660912090	1022.980228272084	240.738460619566	858.564973946754	1093.575973561299	830.771462517034	918.042122238758	839.779799630910	854.809217589889	
41	56.738571428571	739.672117644753	1004.805358456442	550.796972376411	917.754535458426	1439.368898881844	380.696861117912	1013.625527733576	1370.278342794596	544.779448692521	920.723729014767	1436.900360816507	716.075012475345	883.014451161440	1496.188789752454	539.037895749750	970.775247692531	941.457658684226	669.181574110062	956.532043542598	965.764578592853	396.759748391005	1018.138497337088	743.115732906074	632.094753422563	942.266326610335	629.327565476978	689.708673671798	1019.701161944115	581.856050336045	606.362103797433	1024.628170717201	492.052772921581	610.865440273894	997.200625579254	743.222397254620	412.605160993804	908.674033910705	631.668191184215	341.634765308741	994.351054767404	545.589853248376	395.822606119780	986.404114777240	462.354617601578	390.227672067226	920.325080923334	405.260991684987	382.226342586664	782.671167957648	357.803201046146	329.522131952922	772.453623088775	227.345882588390	381.425739319089	992.282103971731	403.445461605902	617.247789169453	921.119668468795	300.745522337592	680.624872068081	957.167545574662	205.787729401886	613.972889048383	817.178625726268	43.768139915739	589.146269719292	989.423015560886	97.252861566718	620.330339014444	902.292018797194	37.236334573337	660.903344541702	1110.101100728111	44.175270809636	645.019951012268	584.302181363587	154.649943321842	413.679294469924	646.404259777710	109.542994519599	337.451540837378	749.373607618353	123.148684217290	361.496682863851	833.899437034599	31.844688529486	341.161857162121	990.711771092263	1102.845698408760	244.311756975734	1231.239888029781	1002.307057865127	243.802292162330	868.951557130690	1092.572216302682	836.136536972159	936.833026620212	840.957496063143	860.330569195177	
42	56.756785714286	738.913135946010	1004.243718164016	556.204575219743	915.253592053214	1438.309914147392	382.907570245793	1013.034856715753	1369.653665075344	546.086433383428	922.287617032228	1436.755171409099	718.336083408235	882.573596759681	1495.778523562701	541.312504065639	971.207332149106	941.182446245775	672.214590931266	954.071501744311	965.270276888723	399.904529272754	1017.746744299129	742.504227771488	634.151239214043	941.826762466153	628.510490573221	691.597839381127	1018.565446255355	581.131725723608	607.658933825072	1023.104511336419	490.971666018403	611.768247213090	1000.496614257333	745.578246162809	416.457074914174	916.315872063885	632.275315620362	344.560613184615	1004.130356692193	547.973512366092	399.404863412011	997.474368532807	463.656862536044	392.808707685446	929.935977490657	406.643670319609	384.172643355827	790.967367182911	363.247770063808	331.353731840794	777.557770739378	232.650186722816	382.014930384157	989.818647746459	402.611493578447	618.044308745856	917.922293038630	300.321524837792	681.198586454045	952.965177498564	205.356094015741	614.202471265222	811.672980607629	43.827110988565	589.183529982074	983.995266699941	97.247664067368	620.393667491820	896.767757752337	37.259679023451	660.929094318755	1104.599736064782	44.026048921682	645.115278063327	587.957814070173	168.342742006434	414.419209685315	647.026845855153	119.649200165428	338.056172908995	750.685356942680	127.281354089034	361.519884831982	829.177513184367	30.618743439004	341.201220599991	982.379207459808	1098.450111856857	249.928388067984	1214.661883391984	980.556850425226	246.909577533909	879.153925210135	1091.533811548240	840.992940108232	956.252816163392	842.678647432109	865.152183140970	
